<svg width="181" height="32" viewBox="0 0 181 32" fill="none" xmlns="http://www.w3.org/2000/svg">
<path d="M46.5303 25.056C44.946 25.056 43.6173 24.8256 42.5441 24.3648C41.488 23.8869 40.6788 23.2725 40.1167 22.5216C39.5716 21.7536 39.282 20.9515 39.2479 20.1152C39.2479 19.9616 39.299 19.8336 39.4012 19.7312C39.5034 19.6288 39.6312 19.5776 39.7845 19.5776H42.0586C42.2801 19.5776 42.4419 19.6288 42.5441 19.7312C42.6634 19.8165 42.7656 19.9275 42.8508 20.064C42.953 20.3883 43.1489 20.7125 43.4385 21.0368C43.728 21.344 44.1198 21.6 44.6139 21.8048C45.1249 22.0096 45.7637 22.112 46.5303 22.112C47.7568 22.112 48.6681 21.9072 49.2643 21.4976C49.8776 21.088 50.1842 20.5333 50.1842 19.8336C50.1842 19.3387 50.0224 18.9461 49.6987 18.656C49.375 18.3488 48.8725 18.0757 48.1911 17.8368C47.5268 17.5808 46.641 17.3163 45.5337 17.0432C44.2561 16.736 43.1829 16.3691 42.3142 15.9424C41.4624 15.4987 40.8151 14.944 40.3722 14.2784C39.9463 13.6128 39.7334 12.768 39.7334 11.744C39.7334 10.7541 39.9975 9.8752 40.5255 9.1072C41.0706 8.3392 41.8372 7.73333 42.8252 7.2896C43.8303 6.84587 45.0227 6.624 46.4025 6.624C47.5097 6.624 48.4892 6.7776 49.341 7.0848C50.1927 7.37493 50.8997 7.76747 51.4618 8.2624C52.0239 8.74027 52.4498 9.2608 52.7394 9.824C53.046 10.3701 53.2079 10.9077 53.2249 11.4368C53.2249 11.5733 53.1738 11.7013 53.0716 11.8208C52.9864 11.9232 52.8586 11.9744 52.6883 11.9744H50.312C50.1757 11.9744 50.0394 11.9403 49.9031 11.872C49.7668 11.8037 49.6561 11.6757 49.5709 11.488C49.4687 10.9589 49.1366 10.5067 48.5744 10.1312C48.0123 9.75573 47.2883 9.568 46.4025 9.568C45.4826 9.568 44.7416 9.73867 44.1795 10.08C43.6173 10.4213 43.3362 10.9504 43.3362 11.6672C43.3362 12.1451 43.4725 12.5461 43.7451 12.8704C44.0347 13.1776 44.4861 13.4507 45.0993 13.6896C45.7296 13.9285 46.5558 14.1845 47.5779 14.4576C49.0258 14.7819 50.2097 15.1573 51.1296 15.584C52.0495 16.0107 52.7224 16.5568 53.1482 17.2224C53.5741 17.8709 53.787 18.6987 53.787 19.7056C53.787 20.832 53.4804 21.7963 52.8672 22.5984C52.2709 23.3835 51.4277 23.9893 50.3375 24.416C49.2473 24.8427 47.9782 25.056 46.5303 25.056Z" fill="white"/>
<path d="M60.3182 25.056C59.2791 25.056 58.3762 24.8256 57.6097 24.3648C56.8601 23.8869 56.281 23.2213 55.8721 22.368C55.4633 21.4976 55.2589 20.4736 55.2589 19.296V12.1024C55.2589 11.9317 55.3185 11.7867 55.4377 11.6672C55.557 11.5477 55.7018 11.488 55.8721 11.488H58.1207C58.3081 11.488 58.4529 11.5477 58.5551 11.6672C58.6743 11.7867 58.7339 11.9317 58.7339 12.1024V19.1424C58.7339 21.2587 59.6623 22.3168 61.5191 22.3168C62.4049 22.3168 63.1033 22.0352 63.6144 21.472C64.1425 20.9088 64.4065 20.1323 64.4065 19.1424V12.1024C64.4065 11.9317 64.4661 11.7867 64.5854 11.6672C64.7046 11.5477 64.8494 11.488 65.0197 11.488H67.2683C67.4387 11.488 67.5835 11.5477 67.7027 11.6672C67.8219 11.7867 67.8816 11.9317 67.8816 12.1024V24.1856C67.8816 24.3563 67.8219 24.5013 67.7027 24.6208C67.5835 24.7403 67.4387 24.8 67.2683 24.8H65.1986C65.0112 24.8 64.8579 24.7403 64.7387 24.6208C64.6365 24.5013 64.5854 24.3563 64.5854 24.1856V23.136C64.1254 23.7333 63.5548 24.2027 62.8734 24.544C62.192 24.8853 61.3403 25.056 60.3182 25.056Z" fill="white"/>
<path d="M70.8736 29.664C70.7032 29.664 70.5584 29.6043 70.4392 29.4848C70.3199 29.3653 70.2603 29.2203 70.2603 29.0496V12.1024C70.2603 11.9317 70.3199 11.7867 70.4392 11.6672C70.5584 11.5477 70.7032 11.488 70.8736 11.488H72.8922C73.0795 11.488 73.2243 11.5477 73.3266 11.6672C73.4458 11.7867 73.5054 11.9317 73.5054 12.1024V13.1264C73.9142 12.5803 74.4508 12.128 75.1152 11.7696C75.7795 11.4112 76.6057 11.232 77.5937 11.232C78.4966 11.232 79.2802 11.3771 79.9445 11.6672C80.6089 11.9573 81.1625 12.3755 81.6054 12.9216C82.0483 13.4507 82.389 14.0821 82.6275 14.816C82.866 15.5499 83.0023 16.3605 83.0363 17.248C83.0534 17.5381 83.0619 17.8368 83.0619 18.144C83.0619 18.4512 83.0534 18.7584 83.0363 19.0656C83.0193 19.9189 82.8915 20.7125 82.653 21.4464C82.4146 22.1632 82.0653 22.7947 81.6054 23.3408C81.1625 23.8699 80.6089 24.288 79.9445 24.5952C79.2802 24.9024 78.4966 25.056 77.5937 25.056C76.6739 25.056 75.8903 24.8939 75.243 24.5696C74.5956 24.2283 74.0676 23.7845 73.6587 23.2384V29.0496C73.6587 29.2203 73.5991 29.3653 73.4799 29.4848C73.3777 29.6043 73.2329 29.664 73.0455 29.664H70.8736ZM76.6483 22.3168C77.3808 22.3168 77.9515 22.1632 78.3603 21.856C78.7691 21.5317 79.0587 21.1136 79.2291 20.6016C79.4165 20.0896 79.5272 19.5264 79.5613 18.912C79.5953 18.4 79.5953 17.888 79.5613 17.376C79.5272 16.7616 79.4165 16.1984 79.2291 15.6864C79.0587 15.1744 78.7691 14.7648 78.3603 14.4576C77.9515 14.1333 77.3808 13.9712 76.6483 13.9712C75.9499 13.9712 75.3792 14.1333 74.9363 14.4576C74.5105 14.7819 74.1953 15.2 73.9909 15.712C73.8035 16.2069 73.6928 16.7189 73.6587 17.248C73.6417 17.5552 73.6332 17.8795 73.6332 18.2208C73.6332 18.5621 73.6417 18.8949 73.6587 19.2192C73.6758 19.7312 73.795 20.2261 74.0165 20.704C74.2379 21.1648 74.5616 21.5488 74.9874 21.856C75.4133 22.1632 75.9669 22.3168 76.6483 22.3168Z" fill="white"/>
<path d="M90.6319 25.056C88.741 25.056 87.242 24.5099 86.1347 23.4176C85.0275 22.3253 84.4312 20.7723 84.3461 18.7584C84.329 18.5877 84.3205 18.3744 84.3205 18.1184C84.3205 17.8453 84.329 17.632 84.3461 17.4784C84.4142 16.1984 84.7038 15.0891 85.2148 14.1504C85.7429 13.2117 86.4669 12.4949 87.3868 12C88.3066 11.488 89.3883 11.232 90.6319 11.232C92.0117 11.232 93.17 11.5221 94.1069 12.1024C95.0439 12.6656 95.7508 13.4592 96.2278 14.4832C96.7047 15.4901 96.9432 16.6592 96.9432 17.9904V18.528C96.9432 18.6987 96.8836 18.8437 96.7644 18.9632C96.6451 19.0827 96.4918 19.1424 96.3044 19.1424H87.8211C87.8211 19.1424 87.8211 19.168 87.8211 19.2192C87.8211 19.2704 87.8211 19.3131 87.8211 19.3472C87.8382 19.9445 87.9489 20.4992 88.1533 21.0112C88.3748 21.5061 88.6899 21.9072 89.0987 22.2144C89.5246 22.5216 90.0271 22.6752 90.6063 22.6752C91.0833 22.6752 91.4836 22.6069 91.8073 22.4704C92.1309 22.3168 92.395 22.1461 92.5994 21.9584C92.8038 21.7707 92.9486 21.6171 93.0338 21.4976C93.1871 21.2928 93.3063 21.1733 93.3915 21.1392C93.4937 21.088 93.6385 21.0624 93.8259 21.0624H96.0233C96.1937 21.0624 96.33 21.1136 96.4322 21.216C96.5514 21.3184 96.6025 21.4464 96.5855 21.6C96.5685 21.8731 96.4237 22.2059 96.1511 22.5984C95.8956 22.9909 95.5208 23.3749 95.0268 23.7504C94.5328 24.1259 93.911 24.4416 93.1615 24.6976C92.429 24.9365 91.5858 25.056 90.6319 25.056ZM87.8211 16.992H93.4681V16.9152C93.4681 16.2496 93.3574 15.6693 93.136 15.1744C92.9145 14.6795 92.5909 14.2869 92.165 13.9968C91.7391 13.7067 91.2281 13.5616 90.6319 13.5616C90.0357 13.5616 89.5246 13.7067 89.0987 13.9968C88.6729 14.2869 88.3492 14.6795 88.1278 15.1744C87.9234 15.6693 87.8211 16.2496 87.8211 16.9152V16.992Z" fill="white"/>
<path d="M99.2467 24.8C99.0763 24.8 98.9316 24.7403 98.8123 24.6208C98.6931 24.5013 98.6334 24.3563 98.6334 24.1856V12.128C98.6334 11.9403 98.6931 11.7867 98.8123 11.6672C98.9316 11.5477 99.0763 11.488 99.2467 11.488H101.316C101.487 11.488 101.632 11.5477 101.751 11.6672C101.887 11.7867 101.955 11.9403 101.955 12.128V13.1776C102.347 12.6315 102.85 12.2133 103.463 11.9232C104.093 11.6331 104.817 11.488 105.635 11.488H106.682C106.87 11.488 107.015 11.5477 107.117 11.6672C107.236 11.7867 107.296 11.9317 107.296 12.1024V13.9456C107.296 14.1163 107.236 14.2613 107.117 14.3808C107.015 14.5003 106.87 14.56 106.682 14.56H104.689C103.872 14.56 103.233 14.7904 102.773 15.2512C102.33 15.712 102.109 16.3435 102.109 17.1456V24.1856C102.109 24.3563 102.049 24.5013 101.93 24.6208C101.81 24.7403 101.657 24.8 101.47 24.8H99.2467Z" fill="white"/>
<path d="M108.905 24.8C108.735 24.8 108.59 24.7403 108.471 24.6208C108.352 24.5013 108.292 24.3563 108.292 24.1856V7.2384C108.292 7.06773 108.352 6.92267 108.471 6.8032C108.59 6.68373 108.735 6.624 108.905 6.624H110.975C111.162 6.624 111.307 6.68373 111.409 6.8032C111.529 6.92267 111.588 7.06773 111.588 7.2384V15.9936L115.881 11.9232C116.034 11.7867 116.17 11.6843 116.29 11.616C116.409 11.5307 116.588 11.488 116.826 11.488H119.203C119.373 11.488 119.509 11.5392 119.611 11.6416C119.714 11.744 119.765 11.8805 119.765 12.0512C119.765 12.1195 119.748 12.1963 119.714 12.2816C119.68 12.3669 119.611 12.4437 119.509 12.512L114.246 17.4528L120.148 23.8016C120.318 23.9723 120.404 24.1173 120.404 24.2368C120.404 24.4075 120.344 24.544 120.225 24.6464C120.123 24.7488 119.995 24.8 119.841 24.8H117.414C117.158 24.8 116.971 24.7659 116.852 24.6976C116.75 24.6123 116.622 24.5013 116.469 24.3648L111.588 19.2192V24.1856C111.588 24.3563 111.529 24.5013 111.409 24.6208C111.307 24.7403 111.162 24.8 110.975 24.8H108.905Z" fill="white"/>
<path d="M121.906 24.8C121.736 24.8 121.591 24.7403 121.472 24.6208C121.353 24.5013 121.293 24.3563 121.293 24.1856V12.1024C121.293 11.9317 121.353 11.7867 121.472 11.6672C121.591 11.5477 121.736 11.488 121.906 11.488H124.001C124.172 11.488 124.317 11.5477 124.436 11.6672C124.555 11.7867 124.615 11.9317 124.615 12.1024V13.152C125.058 12.6059 125.62 12.1536 126.301 11.7952C127 11.4197 127.86 11.232 128.882 11.232C129.921 11.232 130.824 11.4709 131.59 11.9488C132.357 12.4096 132.945 13.0667 133.353 13.92C133.779 14.7733 133.992 15.7973 133.992 16.992V24.1856C133.992 24.3563 133.933 24.5013 133.813 24.6208C133.694 24.7403 133.549 24.8 133.379 24.8H131.13C130.96 24.8 130.815 24.7403 130.696 24.6208C130.577 24.5013 130.517 24.3563 130.517 24.1856V17.1456C130.517 16.1557 130.27 15.3792 129.776 14.816C129.299 14.2528 128.601 13.9712 127.681 13.9712C126.795 13.9712 126.088 14.2528 125.56 14.816C125.032 15.3792 124.768 16.1557 124.768 17.1456V24.1856C124.768 24.3563 124.708 24.5013 124.589 24.6208C124.47 24.7403 124.325 24.8 124.155 24.8H121.906Z" fill="white"/>
<path d="M142.093 25.056C140.73 25.056 139.58 24.8171 138.643 24.3392C137.723 23.8613 137.017 23.1872 136.523 22.3168C136.046 21.4464 135.773 20.4309 135.705 19.2704C135.688 18.9632 135.679 18.5877 135.679 18.144C135.679 17.7003 135.688 17.3248 135.705 17.0176C135.773 15.84 136.054 14.8245 136.548 13.9712C137.059 13.1008 137.775 12.4267 138.694 11.9488C139.631 11.4709 140.764 11.232 142.093 11.232C143.422 11.232 144.546 11.4709 145.466 11.9488C146.403 12.4267 147.118 13.1008 147.612 13.9712C148.123 14.8245 148.413 15.84 148.481 17.0176C148.498 17.3248 148.506 17.7003 148.506 18.144C148.506 18.5877 148.498 18.9632 148.481 19.2704C148.413 20.4309 148.132 21.4464 147.638 22.3168C147.161 23.1872 146.454 23.8613 145.517 24.3392C144.597 24.8171 143.456 25.056 142.093 25.056ZM142.093 22.5216C142.996 22.5216 143.694 22.24 144.188 21.6768C144.682 21.0965 144.955 20.2517 145.006 19.1424C145.023 18.8864 145.031 18.5536 145.031 18.144C145.031 17.7344 145.023 17.4016 145.006 17.1456C144.955 16.0533 144.682 15.2171 144.188 14.6368C143.694 14.0565 142.996 13.7664 142.093 13.7664C141.19 13.7664 140.492 14.0565 139.998 14.6368C139.504 15.2171 139.231 16.0533 139.18 17.1456C139.163 17.4016 139.154 17.7344 139.154 18.144C139.154 18.5536 139.163 18.8864 139.18 19.1424C139.231 20.2517 139.504 21.0965 139.998 21.6768C140.492 22.24 141.19 22.5216 142.093 22.5216Z" fill="white"/>
<path d="M153.57 24.8C153.331 24.8 153.152 24.7403 153.033 24.6208C152.914 24.5013 152.811 24.3477 152.726 24.16L149.072 12.2816C149.055 12.1963 149.047 12.1195 149.047 12.0512C149.047 11.8976 149.098 11.7696 149.2 11.6672C149.319 11.5477 149.447 11.488 149.583 11.488H151.474C151.679 11.488 151.84 11.5477 151.96 11.6672C152.079 11.7696 152.147 11.872 152.164 11.9744L154.668 20.448L157.326 12.0512C157.36 11.9317 157.436 11.8123 157.556 11.6928C157.675 11.5563 157.854 11.488 158.092 11.488H159.37C159.608 11.488 159.787 11.5563 159.906 11.6928C160.026 11.8123 160.102 11.9317 160.136 12.0512L162.794 20.448L165.298 11.9744C165.315 11.872 165.375 11.7696 165.477 11.6672C165.596 11.5477 165.758 11.488 165.962 11.488H167.853C168.006 11.488 168.134 11.5477 168.236 11.6672C168.356 11.7696 168.415 11.8976 168.415 12.0512C168.415 12.1195 168.398 12.1963 168.364 12.2816L164.71 24.16C164.659 24.3477 164.565 24.5013 164.429 24.6208C164.31 24.7403 164.131 24.8 163.893 24.8H162.232C161.993 24.8 161.806 24.7403 161.67 24.6208C161.533 24.5013 161.44 24.3477 161.388 24.16L158.731 16.0704L156.074 24.16C156.005 24.3477 155.903 24.5013 155.767 24.6208C155.648 24.7403 155.46 24.8 155.205 24.8H153.57Z" fill="white"/>
<path d="M173.339 25.056C172.453 25.056 171.652 24.8853 170.937 24.544C170.221 24.1856 169.651 23.7163 169.225 23.136C168.816 22.5387 168.612 21.8731 168.612 21.1392C168.612 19.9445 169.089 18.9973 170.043 18.2976C171.014 17.5808 172.291 17.1029 173.875 16.864L177.376 16.352V15.8144C177.376 15.0976 177.197 14.5429 176.839 14.1504C176.482 13.7579 175.868 13.5616 175 13.5616C174.386 13.5616 173.884 13.6896 173.492 13.9456C173.117 14.1845 172.836 14.5088 172.649 14.9184C172.513 15.1403 172.317 15.2512 172.061 15.2512H170.043C169.855 15.2512 169.71 15.2 169.608 15.0976C169.523 14.9952 169.48 14.8587 169.48 14.688C169.497 14.4149 169.608 14.0821 169.813 13.6896C170.017 13.2971 170.341 12.9216 170.784 12.5632C171.227 12.1877 171.797 11.872 172.496 11.616C173.194 11.36 174.037 11.232 175.025 11.232C176.098 11.232 177.001 11.3685 177.734 11.6416C178.483 11.8976 179.08 12.2475 179.522 12.6912C179.965 13.1349 180.289 13.6555 180.493 14.2528C180.698 14.8501 180.8 15.4816 180.8 16.1472V24.1856C180.8 24.3563 180.74 24.5013 180.621 24.6208C180.502 24.7403 180.357 24.8 180.187 24.8H178.117C177.93 24.8 177.776 24.7403 177.657 24.6208C177.555 24.5013 177.504 24.3563 177.504 24.1856V23.1872C177.282 23.5115 176.984 23.8187 176.609 24.1088C176.235 24.3819 175.775 24.6123 175.23 24.8C174.702 24.9707 174.071 25.056 173.339 25.056ZM174.208 22.624C174.804 22.624 175.34 22.496 175.817 22.24C176.311 21.984 176.695 21.5915 176.967 21.0624C177.257 20.5163 177.402 19.8336 177.402 19.0144V18.4768L174.846 18.8864C173.841 19.04 173.092 19.2875 172.598 19.6288C172.104 19.9701 171.857 20.3883 171.857 20.8832C171.857 21.2587 171.968 21.5829 172.189 21.856C172.427 22.112 172.726 22.3083 173.083 22.4448C173.441 22.5643 173.816 22.624 174.208 22.624Z" fill="white"/>
<path fill-rule="evenodd" clip-rule="evenodd" d="M20.1258 5.2H11.8143C11.6162 5.2 11.4262 5.27884 11.2861 5.41917L5.40902 11.3073C5.26895 11.4477 5.19026 11.638 5.19026 11.8365V20.1635C5.19026 20.362 5.26895 20.5523 5.40902 20.6927L11.2861 26.5808C11.4262 26.7212 11.6162 26.8 11.8143 26.8H20.1258C20.3239 26.8 20.5138 26.7212 20.6539 26.5808L26.531 20.6927C26.6711 20.5523 26.7498 20.362 26.7498 20.1636V11.8365C26.7498 11.638 26.6711 11.4477 26.531 11.3073L20.6539 5.41917C20.5138 5.27884 20.3239 5.2 20.1258 5.2ZM11.8143 4C11.2985 4 10.8039 4.20527 10.4392 4.57065L4.56208 10.4588C4.19739 10.8242 3.99251 11.3197 3.99251 11.8365V20.1635C3.99251 20.6803 4.19739 21.1758 4.56208 21.5412L10.4392 27.4294C10.8039 27.7947 11.2985 28 11.8143 28H20.1258C20.6415 28 21.1362 27.7947 21.5008 27.4294L27.378 21.5412C27.7427 21.1758 27.9475 20.6803 27.9475 20.1636V11.8365C27.9475 11.3197 27.7427 10.8242 27.378 10.4588L21.5008 4.57065C21.1362 4.20527 20.6415 4 20.1258 4H11.8143Z" fill="white"/>
<path fill-rule="evenodd" clip-rule="evenodd" d="M20.2643 4.84H11.6758C11.4711 4.84 11.2747 4.92147 11.13 5.06648L5.05699 11.1509C4.91225 11.2959 4.83093 11.4926 4.83093 11.6977V20.3023C4.83093 20.5074 4.91225 20.7041 5.05699 20.8491L11.13 26.9335C11.2747 27.0785 11.4711 27.16 11.6757 27.16H20.2643C20.469 27.16 20.6653 27.0785 20.81 26.9335L26.8831 20.8491C27.0278 20.7041 27.1091 20.5074 27.1091 20.3023V11.6977C27.1091 11.4926 27.0278 11.2959 26.8831 11.1509L20.81 5.06648C20.6653 4.92147 20.469 4.84 20.2643 4.84ZM11.6758 3.6C11.1428 3.6 10.6317 3.81211 10.2548 4.18967L4.18182 10.2741C3.80497 10.6516 3.59325 11.1637 3.59325 11.6977V20.3023C3.59325 20.8363 3.80497 21.3484 4.18182 21.7259L10.2548 27.8103C10.6317 28.1879 11.1428 28.4 11.6757 28.4H20.2643C20.7972 28.4 21.3084 28.1879 21.6852 27.8103L27.7582 21.7259C28.1351 21.3484 28.3468 20.8363 28.3468 20.3023V11.6977C28.3468 11.1637 28.1351 10.6516 27.7582 10.2741L21.6852 4.18967C21.3084 3.81211 20.7972 3.6 20.2643 3.6H11.6758Z" fill="white"/>
<path d="M23.5558 15.4286L19.05 14.0571C18.4796 13.8857 18.0803 13.4857 17.9092 12.9143L16.5404 8.4C16.4263 8.17143 16.1982 8 15.97 8C15.7419 8 15.5137 8.17143 15.3997 8.4L14.0308 12.9143C13.8597 13.4857 13.4604 13.8857 12.8901 14.0571L8.38426 15.4286C8.15612 15.5429 7.98501 15.7714 7.98501 16C7.98501 16.2286 8.15612 16.4571 8.38426 16.5714L12.8901 17.9429C13.4604 18.1143 13.8597 18.5143 14.0308 19.0857L15.3997 23.6C15.4567 23.8286 15.6848 24 15.97 24C16.2552 24 16.4263 23.8286 16.5404 23.6L17.9092 19.0857C18.0803 18.5143 18.4796 18.1143 19.05 17.9429L23.5558 16.5714C23.7839 16.5143 23.955 16.2857 23.955 16C23.955 15.7143 23.7839 15.5429 23.5558 15.4286Z" fill="white"/>
<path fill-rule="evenodd" clip-rule="evenodd" d="M15.97 26.1538C21.5673 26.1538 26.1048 21.6078 26.1048 16C26.1048 10.3922 21.5673 5.84615 15.97 5.84615C10.3727 5.84615 5.8352 10.3922 5.8352 16C5.8352 21.6078 10.3727 26.1538 15.97 26.1538ZM15.97 28C22.585 28 27.9475 22.6274 27.9475 16C27.9475 9.37258 22.585 4 15.97 4C9.35502 4 3.99251 9.37258 3.99251 16C3.99251 22.6274 9.35502 28 15.97 28Z" fill="white"/>
<path fill-rule="evenodd" clip-rule="evenodd" d="M21.511 1.6L10.429 1.6C10.1649 1.6 9.9116 1.70512 9.72484 1.89223L1.88869 9.74309C1.70192 9.93021 1.597 10.184 1.597 10.4486L1.597 21.5514C1.597 21.816 1.70192 22.0698 1.88869 22.2569L9.72484 30.1078C9.9116 30.2949 10.1649 30.4 10.429 30.4H21.511C21.7751 30.4 22.0284 30.2949 22.2152 30.1078L30.0514 22.2569C30.2381 22.0698 30.343 21.816 30.343 21.5514V10.4486C30.343 10.184 30.2381 9.93021 30.0514 9.74309L22.2152 1.89223C22.0284 1.70512 21.7751 1.6 21.511 1.6ZM10.429 0C9.74135 0 9.08185 0.27369 8.59559 0.760861L0.759436 8.61172C0.273177 9.09889 0 9.75964 0 10.4486V21.5514C0 22.2404 0.273177 22.9011 0.759435 23.3883L8.59559 31.2391C9.08184 31.7263 9.74135 32 10.429 32H21.511C22.1987 32 22.8582 31.7263 23.3445 31.2391L31.1806 23.3883C31.6669 22.9011 31.94 22.2404 31.94 21.5514V10.4486C31.94 9.75964 31.6669 9.09889 31.1806 8.61172L23.3445 0.760861C22.8582 0.27369 22.1987 0 21.511 0H10.429Z" fill="white"/>
</svg>
