<?xml version="1.0" encoding="UTF-8" standalone="no"?>
<svg
   xmlns:dc="http://purl.org/dc/elements/1.1/"
   xmlns:cc="http://creativecommons.org/ns#"
   xmlns:rdf="http://www.w3.org/1999/02/22-rdf-syntax-ns#"
   xmlns:svg="http://www.w3.org/2000/svg"
   xmlns="http://www.w3.org/2000/svg"
   version="1.1"
   id="svg3367"
   viewBox="0 0 472.01483 148.85519"
   height="42.010242mm"
   width="133.21307mm">
  <defs
     id="defs3369" />
  <metadata
     id="metadata3372">
    <rdf:RDF>
      <cc:Work
         rdf:about="">
        <dc:format>image/svg+xml</dc:format>
        <dc:type
           rdf:resource="http://purl.org/dc/dcmitype/StillImage" />
        <dc:title></dc:title>
      </cc:Work>
    </rdf:RDF>
  </metadata>
  <g
     transform="translate(-28.278296,-463.70701)"
     id="layer1">
    <path
       id="path18"
       style="fill:#15569c;fill-opacity:1;fill-rule:nonzero;stroke:none"
       d="m 411.66367,477.66135 0,27.91162 24.17594,-13.95728 64.45351,37.21666 0,-27.90985 -64.45351,-37.21549 -24.17594,13.95434" />
    <path
       id="path20"
       style="fill:#15569c;fill-opacity:1;fill-rule:nonzero;stroke:none"
       d="m 435.83961,510.22637 24.17007,13.95434 0,27.91015 -24.17007,13.95344 -24.17594,-13.95344 0,-27.91015 24.17594,-13.95434" />
    <path
       id="path22"
       style="fill:#15569c;fill-opacity:1;fill-rule:nonzero;stroke:none"
       d="m 411.66367,598.6061 64.45938,-37.21195 0,-27.91044 24.17007,13.95344 0,27.91074 -64.45351,37.21431 -24.17594,-13.9561" />
    <path
       id="path24"
       style="fill:#15569c;fill-opacity:1;fill-rule:nonzero;stroke:none"
       d="m 371.38318,575.34789 24.17006,13.95579 24.173,-13.95579 -24.173,-13.95374 0,-74.42598 -24.17006,13.95433 0,74.42539" />
    <path
       id="path26"
       style="fill:#15569c;fill-opacity:1;fill-rule:nonzero;stroke:none"
       d="m 50.121073,561.97802 10.335146,0 c 16.55636,-0.35181 23.133204,-6.81127 23.133204,-23.60295 0,-15.268 -8.22112,-22.66286 -23.133204,-22.66286 l -10.335146,0 0,46.26581 z m -21.842777,-65.05591 36.050072,0 c 25.718462,0 41.103832,15.61625 41.103832,41.57003 0,27.48098 -15.619793,42.27688 -41.103832,42.27688 l -36.050072,0 0,-83.84691" />
    <path
       id="path28"
       style="fill:#15569c;fill-opacity:1;fill-rule:nonzero;stroke:none"
       d="m 134.43538,552.58472 c 0.4724,9.86541 6.57831,13.03455 15.85424,13.03455 6.57447,0 13.38692,-2.3476 13.38692,-8.57175 0,-7.39956 -11.97709,-8.80822 -24.07387,-12.21504 -11.97855,-3.40358 -24.54303,-8.80616 -24.54303,-24.19036 0,-18.31653 18.43712,-25.4849 34.17164,-25.4849 16.67548,0 33.47069,8.10375 33.58689,27.01152 l -21.84278,0 c 0.35385,-7.63312 -6.81127,-10.09806 -13.50311,-10.09806 -4.69842,0 -10.57105,1.64428 -10.57105,7.16541 0,6.45507 12.09678,7.63049 24.30977,11.03729 12.09563,3.40329 24.3083,9.03914 24.3083,24.18889 0,21.25802 -18.08415,28.06811 -36.52129,28.06811 -19.26075,0 -36.28567,-8.4579 -36.40423,-29.94566 l 21.8416,0" />
    <path
       id="path30"
       style="fill:#15569c;fill-opacity:1;fill-rule:nonzero;stroke:none"
       d="m 195.85123,496.92211 32.17821,0 14.4441,55.89823 0.23678,0 14.44202,-55.89823 32.17852,0 0,83.84691 -20.55294,0 0,-63.65079 -0.23438,0 -17.61647,63.65079 -16.67461,0 -17.6144,-63.65079 -0.2332,0 0,63.65079 -20.55353,0 0,-83.84691" />
  </g>
</svg>
